# xmcd
#
# Track frame offsets:
#	150
#	15929
#	33048
#	49761
#	59591
#	77561
#	88677
#	102927
#	119501
#	133386
#	150718
#	156633
#	172679
#	187012
#	204053
#
# Disc length: 3120 seconds
# Revision: 0
# Processed by: cddbd v1.5.2PL0 Copyright (c) Steve Scherf et al.
# Submitted via: dBpowerAMP V12.0
#
DISCID=bd0c2e0f
DTITLE=John, Jonathan and Nathan McEuen - The McEuen Sessions - For All The Good
DYEAR=2012
DGENRE=Country
TTITLE0=Lng Hard Road
TTITLE1=For All the Good
TTITLE2=Grand Design
TTITLE3=Hills of Sylmar
TTITLE4=Leader of the Band
TTITLE5=Banjormous
TTITLE6=Love Word
TTITLE7=Old Shep
TTITLE8=Quicker at the Draw
TTITLE9=Only You Know and I Know
TTITLE10=Dinner!
TTITLE11=Time to Go Home
TTITLE12=Love Word (Without Drums)
TTITLE13=Only You Know and I Know (Dave Mason Mix)
TTITLE14=The Goodtime Suite
EXTD=
EXTT0=
EXTT1=
EXTT2=
EXTT3=
EXTT4=
EXTT5=
EXTT6=
EXTT7=
EXTT8=
EXTT9=
EXTT10=
EXTT11=
EXTT12=
EXTT13=
EXTT14=
PLAYORDER=
